<?xml version="1.0" encoding="UTF-8"?>
<svg width="12px" height="12px" viewBox="0 0 12 12" version="1.1" xmlns="http://www.w3.org/2000/svg" xmlns:xlink="http://www.w3.org/1999/xlink">
    <!-- Generator: Sketch 54 (76480) - https://sketchapp.com -->
    <title>icons/verified-user</title>
    <desc>Created with Sketch.</desc>
    <g id="Symbols" stroke="none" stroke-width="1" fill="none" fill-rule="evenodd">
        <g id="user-name-pic" transform="translate(-16.000000, -16.000000)">
            <g id="icons/verified-user" transform="translate(16.000000, 16.000000)">
                <g id="Group" transform="translate(0.000000, -0.000000)">
                    <path d="M10.7551589,6 L11.8326826,7.05301171 C11.9888456,7.20901356 12.0356944,7.39231548 11.9732292,7.60291782 C11.9107639,7.81352016 11.7780257,7.94222159 11.5750139,7.98902211 L10.0992749,8.36342627 L10.5209146,9.8142424 C10.5833799,10.0326447 10.536531,10.2198468 10.380368,10.3758486 C10.2242051,10.5318505 10.0368096,10.578651 9.81818177,10.5162502 L8.36586723,10.0950455 L7.99107638,11.5692619 C7.94422753,11.7876642 7.81148898,11.924166 7.59286111,11.9787665 C7.37423323,12.033367 7.19464583,11.9826666 7.05409926,11.8266648 L6,10.7502528 L4.94590074,11.8266648 C4.78973777,11.9826666 4.60624653,12.033367 4.39542668,11.9787665 C4.18460683,11.924166 4.05577247,11.7876642 4.00892362,11.5692619 L3.63413277,10.0950455 L2.18181823,10.5162502 C1.96319035,10.578651 1.77579493,10.5318505 1.61963196,10.3758486 C1.46346898,10.2198468 1.41662013,10.0326447 1.47908539,9.8142424 L1.90072509,8.36342627 L0.424986125,7.98902211 C0.221974296,7.94222159 0.0892361085,7.81352016 0.0267708479,7.60291782 C-0.0356944127,7.39231548 0.0111544433,7.20901356 0.167317416,7.05301171 L1.24484111,6 L0.167317416,4.94698829 C0.0111544433,4.79098644 -0.0356944127,4.60768452 0.0267708479,4.39708218 C0.0892361085,4.18647984 0.221974296,4.05777841 0.424986125,4.01097789 L1.90072509,3.63657373 L1.47908539,2.1857576 C1.41662013,1.96735529 1.46346898,1.78015321 1.61963196,1.62415136 C1.77579493,1.4681495 1.96319035,1.42134898 2.18181823,1.48374979 L3.63413277,1.90495448 L4.00892362,0.430738089 C4.05577247,0.21233578 4.18851102,0.0758340243 4.40713889,0.0212335364 C4.62576677,-0.0333669516 4.80535417,0.017333374 4.94590074,0.173335227 L6,1.27314745 L7.05409926,0.173335227 C7.21026223,0.017333374 7.39375347,-0.0294671463 7.60457332,0.0329336664 C7.81539317,0.0953344791 7.94422753,0.227935715 7.99107638,0.430738089 L8.36586723,1.90495448 L9.81818177,1.48374979 C10.0368096,1.42134898 10.2242051,1.4681495 10.380368,1.62415136 C10.536531,1.78015321 10.5833799,1.96735529 10.5209146,2.1857576 L10.0992749,3.63657373 L11.5750139,4.01097789 C11.7780257,4.05777841 11.9107639,4.18647984 11.9732292,4.39708218 C12.0356944,4.60768452 11.9888456,4.79098644 11.8326826,4.94698829 L10.7551589,6 Z" id="c" fill="#067AF4" fill-rule="nonzero"></path>
                    <path d="M4.90178016,8.45089314 L2.66517835,6.22768416 C2.60267843,6.16518424 2.57142857,6.08482729 2.57142857,5.98661331 C2.57142857,5.88839932 2.60267843,5.80804237 2.66517835,5.74554245 L3.16071288,5.26340074 C3.2232128,5.19197241 3.30133755,5.15625814 3.39508732,5.15625814 C3.4888371,5.15625814 3.57142626,5.19197241 3.64285459,5.26340074 L5.14285101,6.76339717 L8.35712906,3.54911912 C8.4285574,3.47769078 8.51114655,3.44197652 8.60489633,3.44197652 C8.69864611,3.44197652 8.77677085,3.47769078 8.83927077,3.54911912 L9.3348053,4.03126082 C9.39730522,4.09376074 9.42855508,4.1741177 9.42855508,4.27233168 C9.42855508,4.37054566 9.39730522,4.45090261 9.3348053,4.51340253 L5.38392187,8.45089314 C5.32142195,8.52232148 5.241065,8.55803575 5.14285101,8.55803575 C5.04463703,8.55803575 4.96428008,8.52232148 4.90178016,8.45089314 Z" id="c" fill="#FFFFFF" fill-rule="nonzero"></path>
                </g>
            </g>
        </g>
    </g>
</svg>