<svg height="512pt" viewBox="0 0 512 512" width="512pt" xmlns="http://www.w3.org/2000/svg"><path d="m402 371h-372c-11.046875 0-20-8.953125-20-20v-321c0-11.046875 8.953125-20 20-20h372c11.046875 0 20 8.953125 20 20v321c0 11.046875-8.953125 20-20 20zm0 0" fill="#dff6fc"/><path d="m422 98h-412v-68c0-11.046875 8.953125-20 20-20h372c11.046875 0 20 8.953125 20 20zm0 0" fill="#ff9d6c"/><path d="m492 502h-212c-5.523438 0-10-4.476562-10-10v-294c0-5.523438 4.476562-10 10-10h212c5.523438 0 10 4.476562 10 10v294c0 5.523438-4.476562 10-10 10zm0 0" fill="#fff"/><path d="m454 303c0 37.554688-30.445312 68-68 68s-68-30.445312-68-68 30.445312-68 68-68 68 30.445312 68 68zm0 0" fill="#60a4ff"/><path d="m386 371c17.289062 0 33.066406-6.457031 45.066406-17.082031-5.390625-19.839844-23.519531-34.433594-45.066406-34.433594s-39.675781 14.59375-45.066406 34.433594c12 10.628906 27.777344 17.082031 45.066406 17.082031zm0 0" fill="#91def5"/><path d="m407.328125 292.828125v5.332031c0 11.777344-9.550781 21.324219-21.328125 21.324219s-21.324219-9.546875-21.324219-21.324219v-5.332031c0-11.777344 9.546875-21.328125 21.324219-21.328125s21.328125 9.550781 21.328125 21.328125zm0 0" fill="#ffddcf"/><path d="m207.613281 433v-122.308594h16.65625l-39.574219-68.546875-39.578124 68.546875h18.625v122.308594" fill="#60a4ff"/><path d="m70 64c2.628906 0 5.210938-1.070312 7.070312-2.929688 1.859376-1.859374 2.929688-4.441406 2.929688-7.070312s-1.070312-5.210938-2.929688-7.070312c-1.859374-1.859376-4.441406-2.929688-7.070312-2.929688s-5.210938 1.070312-7.070312 2.929688c-1.859376 1.859374-2.929688 4.441406-2.929688 7.070312s1.070312 5.210938 2.929688 7.070312c1.859374 1.859376 4.441406 2.929688 7.070312 2.929688zm0 0"/><path d="m123.671875 64c2.628906 0 5.199219-1.070312 7.066406-2.929688 1.863281-1.859374 2.933594-4.441406 2.933594-7.070312s-1.070313-5.210938-2.933594-7.070312c-1.859375-1.859376-4.4375-2.929688-7.066406-2.929688-2.640625 0-5.210937 1.070312-7.070313 2.929688-1.871093 1.859374-2.929687 4.441406-2.929687 7.070312s1.058594 5.210938 2.929687 7.070312c1.859376 1.859376 4.429688 2.929688 7.070313 2.929688zm0 0"/><path d="m212.5 64h155.5c5.523438 0 10-4.476562 10-10s-4.476562-10-10-10h-155.5c-5.523438 0-10 4.476562-10 10s4.476562 10 10 10zm0 0"/><path d="m444 405h-116c-5.523438 0-10 4.476562-10 10s4.476562 10 10 10h116c5.523438 0 10-4.476562 10-10s-4.476562-10-10-10zm0 0"/><path d="m423.144531 445h-74.292969c-5.523437 0-10 4.476562-10 10s4.476563 10 10 10h74.292969c5.523438 0 10-4.476562 10-10s-4.476562-10-10-10zm0 0"/><path d="m386 225c-43.011719 0-78 34.988281-78 78 0 22.90625 9.929688 43.539062 25.707031 57.820312.429688.449219.902344.859376 1.414063 1.226563 13.667968 11.796875 31.449218 18.953125 50.878906 18.953125 19.425781 0 37.195312-7.152344 50.863281-18.941406.523438-.371094 1.007813-.789063 1.441407-1.25 15.773437-14.28125 25.695312-34.90625 25.695312-57.808594 0-43.011719-34.988281-78-78-78zm-33.199219 125.515625c5.972657-12.636719 18.84375-21.03125 33.199219-21.03125s27.226562 8.394531 33.199219 21.03125c-9.410157 6.597656-20.855469 10.484375-33.199219 10.484375s-23.785156-3.886719-33.199219-10.484375zm21.875-52.355469v-5.332031c0-6.246094 5.078125-11.328125 11.324219-11.328125s11.328125 5.082031 11.328125 11.328125v5.332031c0 6.242188-5.082031 11.324219-11.328125 11.324219s-11.324219-5.082031-11.324219-11.324219zm59.164063 37.585938c-5.4375-8.511719-13.046875-15.394532-21.949219-19.972656 3.425781-5.023438 5.4375-11.089844 5.4375-17.613282v-5.332031c0-17.273437-14.054687-31.328125-31.328125-31.328125s-31.324219 14.054688-31.324219 31.328125v5.332031c0 6.523438 2.007813 12.589844 5.433594 17.613282-8.902344 4.578124-16.511719 11.460937-21.945313 19.976562-6.40625-9.328125-10.164062-20.605469-10.164062-32.75 0-31.980469 26.019531-58 58-58s58 26.019531 58 58c0 12.144531-3.757812 23.421875-10.160156 32.746094zm0 0"/><path d="m492 178h-60v-148c0-16.542969-13.457031-30-30-30h-372c-16.542969 0-30 13.457031-30 30v321c0 16.542969 13.457031 30 30 30h123.742188v52c0 5.523438 4.476562 10 10 10h43.871093c5.523438 0 10-4.476562 10-10v-52h42.386719v111c0 11.027344 8.972656 20 20 20h212c11.027344 0 20-8.972656 20-20v-294c0-11.027344-8.972656-20-20-20zm-462-158h372c5.515625 0 10 4.484375 10 10v58h-392v-58c0-5.515625 4.484375-10 10-10zm167.613281 403h-23.871093v-112.308594c0-5.523437-4.476563-10-10-10h-1.304688l22.253906-38.546875 22.269532 38.566407c-5.21875.335937-9.347657 4.675781-9.347657 9.980468zm62.386719-225v163h-42.386719v-40.308594h6.65625c3.574219 0 6.875-1.90625 8.660157-5 1.785156-3.09375 1.785156-6.90625 0-10l-39.574219-68.546875c-1.789063-3.09375-5.089844-5-8.660157-5-3.574218 0-6.875 1.90625-8.660156 5l-39.578125 68.546875c-1.785156 3.09375-1.785156 6.90625 0 10 1.785157 3.09375 5.089844 5 8.660157 5h8.625v40.308594h-123.742188c-5.515625 0-10-4.484375-10-10v-243h392v70h-132c-11.027344 0-20 8.972656-20 20zm232 294h-212v-294h212l.011719 294s-.003907 0-.011719 0zm0 0"/><path d="m190 150h-120c-5.523438 0-10 4.476562-10 10s4.476562 10 10 10h120c5.523438 0 10-4.476562 10-10s-4.476562-10-10-10zm0 0"/><path d="m230 150c-2.628906 0-5.210938 1.070312-7.070312 2.929688-1.859376 1.859374-2.929688 4.441406-2.929688 7.070312s1.070312 5.210938 2.929688 7.070312c1.859374 1.859376 4.441406 2.929688 7.070312 2.929688s5.210938-1.070312 7.070312-2.929688c1.859376-1.859374 2.929688-4.441406 2.929688-7.070312s-1.070312-5.210938-2.929688-7.070312c-1.859374-1.859376-4.441406-2.929688-7.070312-2.929688zm0 0"/><path d="m157 198h-87c-5.523438 0-10 4.476562-10 10s4.476562 10 10 10h87c5.523438 0 10-4.476562 10-10s-4.476562-10-10-10zm0 0"/></svg>